<?xml version="1.0" encoding="UTF-8"?>
<svg xmlns="http://www.w3.org/2000/svg" xmlns:xlink="http://www.w3.org/1999/xlink" width="170pt" height="175.1pt" viewBox="0 0 170 175.1" version="1.1">
<g id="surface1">
<path style=" stroke:none;fill-rule:evenodd;fill:rgb(10.594177%,9.812927%,9.423828%);fill-opacity:1;" d="M 113.9375 71.578125 C 107.757813 65.792969 113.332031 58.625 120.582031 59.566406 C 123.179688 59.902344 125.289063 61.304688 126.667969 63.519531 C 130.984375 70.445313 132.980469 78.902344 128.328125 86.207031 C 123.179688 94.289063 112.355469 97.183594 103.304688 95.867188 C 91.742188 94.191406 83.246094 86.363281 80.179688 75.132813 L 80.171875 75.097656 L 80.160156 75.0625 C 77.472656 64.214844 79.496094 53.316406 86.378906 44.457031 C 94.082031 34.539063 106.605469 28.851563 119.101563 29.03125 C 134 29.246094 146.183594 37.421875 153.8125 49.960938 C 159.078125 58.613281 160.378906 69.515625 159.394531 79.449219 C 158.703125 86.445313 156.664063 93.308594 153.128906 99.40625 C 148.207031 107.898438 140.835938 114.15625 131.699219 117.734375 C 120.296875 122.203125 107.585938 121.988281 95.726563 119.65625 L 88.132813 119.035156 L 15.167969 124.394531 C 12.921875 124.628906 10.574219 123.886719 9.21875 121.992188 C 7.480469 119.566406 8.203125 116.636719 9.851563 114.394531 L 9.886719 114.34375 L 56.792969 55.453125 C 57.9375 53.371094 58.394531 50.910156 59.183594 48.679688 L 59.214844 48.601563 C 72.929688 12.953125 103.054688 1.476563 139.171875 10.207031 L 139.191406 10.210938 C 140.0625 10.429688 142.359375 10.839844 143.21875 10.539063 C 145.953125 8.214844 148.316406 5.375 150.789063 2.78125 L 150.835938 2.734375 C 151.410156 2.15625 152.082031 1.691406 152.824219 1.355469 C 154.980469 0.375 157.503906 0.558594 159.652344 1.457031 C 164.195313 3.347656 166.863281 8.328125 163.558594 12.664063 L 163.519531 12.71875 L 152.554688 25.84375 L 152.511719 25.890625 C 149.675781 29.015625 146.277344 29.640625 142.351563 28.195313 L 142.238281 28.15625 L 142.132813 28.105469 C 134.089844 24.425781 127.191406 22.203125 118.203125 22.105469 C 106.507813 22.652344 94.839844 25.964844 85.820313 33.699219 C 78.566406 39.921875 73.878906 48.347656 72.398438 57.78125 C 71.183594 65.523438 72.210938 73.511719 75.253906 80.726563 C 78.523438 88.488281 83.9375 95.011719 90.816406 99.84375 C 101.871094 105.53125 114.832031 107.886719 126.390625 102.207031 C 135.402344 97.78125 141.8125 89.1875 143.78125 79.378906 C 146.058594 68.019531 142.09375 57.191406 133.292969 49.714844 C 127.480469 44.929688 119.894531 43.292969 112.554688 44.726563 C 105.949219 46.015625 99.476563 49.855469 96.0625 55.789063 C 91.984375 62.875 93.574219 70.609375 97.703125 77.261719 C 100.464844 80.675781 104.675781 82.476563 109.046875 82.382813 C 111.632813 82.328125 115.753906 81.347656 116.914063 78.691406 C 118 76.210938 115.554688 73.199219 113.9375 71.578125 Z M 56.023438 79.613281 C 49.0625 89.808594 41.066406 98.988281 32.570313 107.925781 C 32.804688 108.410156 33.699219 108.703125 34.1875 108.644531 L 34.246094 108.636719 L 71.929688 105.722656 C 72.082031 105.710938 72.425781 105.660156 72.617188 105.566406 C 72.546875 105.363281 72.34375 105.089844 72.203125 104.917969 C 64.648438 98.363281 59.996094 90.09375 57.921875 80.328125 L 57.914063 80.277344 L 57.902344 80.226563 C 57.835938 79.851563 57.585938 78.808594 57.261719 78.414063 C 56.835938 78.601563 56.242188 79.308594 56.023438 79.613281 Z M 56.023438 79.613281 "/>
<path style=" stroke:none;fill-rule:evenodd;fill:rgb(77.34375%,78.125%,78.514099%);fill-opacity:1;" d="M 137.300781 11.613281 C 99.6875 2.519531 73.105469 16.535156 60.953125 48.113281 C 60.125 50.460938 59.65625 53.097656 58.21875 55.585938 L 11.195313 114.625 C 8.8125 117.871094 10.949219 120.035156 13.742188 119.714844 L 87 114.339844 L 95.007813 114.992188 C 133.625 122.664063 152.789063 101.648438 155.175781 77.546875 C 156.089844 68.292969 154.929688 58.023438 150.027344 49.96875 C 126.875 11.921875 72.714844 35.179688 82.015625 72.71875 C 90.652344 104.328125 140.910156 92.441406 122.902344 63.558594 C 122.015625 62.132813 120.726563 61.253906 119.039063 61.035156 C 115.101563 60.523438 110.742188 63.871094 114.9375 67.753906 C 128.890625 81.671875 104.421875 90.59375 94.03125 77.453125 C 76.542969 49.59375 113.292969 28.566406 134.132813 45.746094 C 164.378906 71.417969 134.484375 124.972656 88.070313 100.894531 C 53.550781 76.871094 62.585938 19.90625 117.003906 17.414063 C 126.984375 17.507813 134.296875 20.046875 142.273438 23.695313 C 145.246094 24.789063 147.234375 24.25 149.078125 22.21875 L 159.957031 9.195313 C 163.402344 4.671875 155.203125 -0.015625 151.878906 3.316406 C 149.253906 6.066406 146.777344 9.03125 143.910156 11.4375 C 142.613281 12.441406 139.707031 12.210938 137.300781 11.613281 Z M 52.347656 76.242188 C 55.066406 72.429688 58.851563 72.75 59.800781 78.085938 C 61.699219 87.03125 65.921875 94.832031 73.234375 101.117188 C 75.8125 103.90625 74.507813 106.941406 71.019531 107.207031 L 33.402344 110.117188 C 29.71875 110.546875 26.777344 106.613281 29.140625 104.246094 C 37.796875 95.144531 45.460938 86.328125 52.347656 76.242188 Z M 52.347656 76.242188 "/>
<path style=" stroke:none;fill-rule:evenodd;fill:rgb(10.594177%,9.812927%,9.423828%);fill-opacity:1;" d="M 145.597656 152.527344 C 145.730469 150.226563 146.117188 147.792969 148.28125 146.5 C 149.25 145.519531 151.171875 139.507813 151.761719 137.972656 C 152.269531 136.644531 153.140625 135.410156 154.09375 134.363281 C 155.0625 133.292969 156.257813 132.265625 157.511719 131.542969 C 158.824219 130.78125 160.492188 130.210938 161.925781 131.023438 C 162.179688 131.167969 162.464844 131.285156 162.726563 131.417969 C 165.21875 132.664063 165.988281 135.371094 166.617188 137.890625 C 167.191406 140.191406 167.964844 142.410156 168.699219 144.660156 C 169.296875 146.5 169.988281 148.65625 170.039063 150.59375 C 170.066406 151.730469 169.941406 152.949219 169.808594 154.074219 C 169.632813 155.539063 169.40625 157 169.144531 158.449219 C 168.726563 160.765625 168.1875 163.539063 167.351563 165.730469 C 166.394531 168.25 165.054688 172.496094 161.714844 172.414063 C 160.082031 172.375 158.613281 171.222656 157.683594 169.957031 C 156.640625 168.535156 156.074219 166.722656 156.371094 164.960938 C 156.425781 164.644531 156.480469 164.332031 156.535156 164.015625 C 156.675781 163.210938 156.820313 162.402344 156.949219 161.59375 C 156.40625 161.746094 155.863281 161.878906 155.3125 162.019531 C 155.171875 162.054688 154.917969 162.113281 154.738281 162.179688 C 154.371094 163.359375 154.128906 164.691406 153.847656 165.898438 C 153.5625 167.128906 153.261719 168.464844 152.8125 169.644531 C 152.351563 170.859375 151.652344 171.921875 150.375 172.394531 C 149.503906 172.714844 148.765625 172.621094 147.875 172.597656 C 147.324219 172.585938 146.78125 172.570313 146.230469 172.519531 C 144.058594 172.304688 141.890625 171.265625 141.949219 168.742188 C 141.964844 168.121094 141.964844 167.429688 141.972656 166.707031 C 141.871094 166.90625 141.761719 167.09375 141.648438 167.257813 C 141.414063 167.683594 141.195313 168.484375 140.992188 168.964844 C 140.363281 170.46875 139.382813 171.777344 137.695313 172.113281 C 136.050781 172.441406 134.113281 172.390625 132.972656 170.960938 C 132.449219 170.304688 132.234375 169.496094 132.285156 168.660156 C 132.367188 167.277344 132.480469 162.292969 131.972656 161.125 C 131.453125 160.257813 130.449219 159.738281 129.492188 159.511719 C 128.832031 159.355469 127.304688 158.828125 126.1875 158.582031 C 125.894531 161.6875 124.558594 166.46875 123.539063 168.539063 C 122.859375 169.917969 121.882813 171.132813 120.441406 171.75 C 119.507813 172.148438 118.6875 172.191406 117.699219 172.15625 C 114.289063 172.027344 114.007813 166.832031 114.203125 164.375 C 114.355469 162.464844 114.769531 160.425781 115.121094 158.53125 C 115.238281 157.898438 115.371094 157.242188 115.5 156.574219 C 114.71875 158.480469 113.65625 160.335938 112.378906 162.179688 C 108.710938 167.472656 102.871094 173.214844 96.25 174.402344 C 92.828125 175.019531 88.527344 172.722656 86.597656 169.949219 C 85.613281 168.535156 84.777344 166.789063 84.257813 165 C 83.175781 167.066406 81.984375 168.980469 81.179688 169.765625 C 78.792969 172.089844 75.015625 172.082031 72.960938 169.320313 C 72.050781 168.097656 71.246094 166.273438 70.605469 164.878906 C 70.222656 164.042969 69.851563 163.203125 69.472656 162.367188 C 69.148438 163.292969 68.84375 164.226563 68.597656 165.179688 C 68.398438 165.957031 68.226563 166.789063 68.179688 167.59375 C 67.996094 170.773438 67.03125 172.851563 63.6875 173.214844 C 60.566406 173.550781 57.417969 171.523438 57.472656 168.132813 C 57.496094 166.671875 57.847656 165.027344 58.136719 163.59375 C 58.503906 161.792969 58.894531 159.996094 59.1875 158.183594 C 59.28125 157.585938 59.367188 156.992188 59.4375 156.390625 C 59.539063 155.527344 59.601563 154.683594 59.648438 153.835938 C 59.632813 153.90625 59.613281 153.972656 59.597656 154.042969 C 58.453125 158.613281 55.792969 162.507813 52.492188 165.808594 C 49.691406 168.609375 46.21875 171.597656 42.507813 173.121094 C 40.363281 174 38.351563 174.316406 36.050781 174.054688 C 33.722656 173.789063 31.132813 171.828125 29.570313 170.175781 C 28.648438 169.199219 27.835938 168.101563 27.207031 166.914063 C 27.214844 166.996094 27.222656 167.074219 27.230469 167.152344 C 27.367188 169.21875 27.054688 171.539063 25.339844 172.921875 C 24.148438 173.878906 22.554688 174.109375 21.105469 173.683594 C 19.394531 173.179688 17.039063 170.121094 15.976563 168.71875 C 14.941406 167.355469 13.675781 165.59375 12.988281 164.03125 C 12.75 163.484375 12.257813 162.464844 11.726563 161.5 C 11.429688 162.75 11.085938 163.992188 10.691406 165.210938 C 10.210938 166.714844 9.605469 168.386719 8.796875 169.746094 C 7.582031 171.792969 5.496094 174.003906 2.878906 172.835938 C 2.496094 172.664063 2.148438 172.429688 1.835938 172.144531 C 0.804688 171.214844 0.535156 169.15625 0.375 167.839844 C 0.140625 165.898438 0.0859375 163.875 0.183594 161.925781 C 0.261719 160.40625 0.441406 158.851563 0.8125 157.375 C 0.945313 156.835938 1.285156 155.5625 1.359375 154.800781 C 1.199219 154.570313 1.078125 154.320313 0.988281 154.015625 C 0.675781 152.980469 0.65625 150.941406 0.667969 149.851563 C 0.6875 148.265625 0.765625 145.878906 2.039063 144.757813 C 2.84375 143.992188 3.996094 141.242188 3.996094 140.117188 C 3.996094 137.53125 3.785156 136.027344 4.714844 133.4375 L 4.875 133 L 5.199219 132.660156 C 7.488281 130.289063 11.222656 129.214844 13.757813 131.957031 C 15.824219 134.191406 16.222656 137.914063 15.75 141.082031 C 18.863281 139.226563 23.210938 137.039063 25.804688 137.757813 C 28.117188 138.398438 29.371094 139.6875 29.609375 141.339844 C 30.484375 139.949219 31.503906 138.65625 32.664063 137.523438 C 33.042969 137.113281 33.859375 136.164063 34.105469 135.660156 C 34.234375 134.789063 34.683594 133.886719 35.226563 133.214844 C 36.332031 131.84375 38.078125 131.171875 39.761719 131.925781 C 40.203125 132.039063 42.007813 131.125 42.414063 130.949219 C 45.28125 129.734375 48.503906 130.929688 50.902344 132.609375 C 54.667969 135.246094 59.316406 140.453125 59.933594 145.148438 C 60.070313 146.195313 60.164063 147.210938 60.195313 148.21875 C 60.246094 148.078125 60.304688 147.941406 60.367188 147.804688 C 60.445313 147.632813 60.515625 147.457031 60.570313 147.277344 C 60.730469 146.773438 60.804688 146.214844 60.871094 145.691406 C 61.003906 144.675781 61.113281 143.667969 61.257813 142.65625 L 61.285156 142.46875 L 61.339844 142.292969 C 62.054688 140.074219 63.621094 137.027344 65.878906 136.105469 C 69.585938 134.59375 75.683594 135 76.109375 140.082031 C 76.113281 140.132813 76.117188 140.183594 76.121094 140.238281 C 76.269531 138.871094 76.535156 137.199219 77.34375 136.097656 C 77.902344 135.335938 78.527344 134.605469 79.144531 133.894531 C 79.652344 133.3125 80.164063 132.738281 80.667969 132.152344 C 80.910156 131.875 81.265625 131.484375 81.460938 131.175781 C 81.894531 130.480469 82.5625 129.964844 83.367188 129.777344 C 84.699219 129.46875 85.929688 130.125 86.679688 131.210938 C 87.371094 132.207031 87.667969 133.515625 87.804688 134.707031 C 87.992188 136.398438 88.011719 138.207031 87.996094 139.9375 C 88.558594 139.125 89.199219 138.347656 89.890625 137.773438 C 91.222656 136.671875 91.035156 135.625 91.632813 134.210938 C 92.535156 132.078125 94.867188 131.007813 97.054688 131.855469 C 97.515625 131.84375 98.675781 131.441406 99.078125 131.3125 C 99.867188 131.0625 100.675781 130.820313 101.496094 130.71875 C 103.515625 130.472656 106.527344 131.664063 108.257813 132.621094 C 111.285156 134.296875 113.78125 136.816406 114.992188 140.101563 C 115.648438 141.890625 116.246094 143.699219 116.609375 145.570313 C 116.675781 145.910156 116.730469 146.242188 116.777344 146.574219 C 116.796875 146.417969 116.816406 146.265625 116.835938 146.109375 C 117.292969 142.445313 117.8125 138.789063 118.386719 135.140625 L 118.457031 134.695313 L 118.699219 134.3125 C 119.59375 132.902344 121.132813 130.953125 122.871094 130.710938 C 125.269531 130.382813 128.730469 130.777344 129.433594 133.59375 C 129.503906 133.871094 129.570313 134.152344 129.621094 134.4375 C 129.78125 135.351563 129.753906 136.21875 129.667969 137.136719 C 129.515625 138.734375 129.234375 140.363281 128.976563 141.945313 C 128.847656 142.730469 128.113281 146.59375 128.167969 147.703125 C 129.261719 148.152344 132.453125 148.765625 134.035156 148.726563 C 134.132813 147.214844 134.300781 145.675781 134.414063 144.175781 C 134.496094 143.070313 134.574219 141.960938 134.613281 140.855469 C 134.628906 140.398438 134.671875 139.59375 134.601563 139.117188 C 133.859375 137.28125 133.210938 135.554688 134.371094 133.664063 C 135.089844 132.496094 136.53125 131.417969 137.765625 130.859375 C 139.75 129.964844 141.953125 129.996094 143.621094 131.542969 C 144.796875 132.636719 145.582031 133.972656 145.859375 135.558594 C 146.023438 136.5 145.941406 137.175781 145.941406 138.089844 C 145.941406 138.886719 145.855469 139.757813 145.800781 140.554688 C 145.707031 141.945313 145.609375 143.332031 145.519531 144.722656 C 145.4375 146.007813 145.359375 147.292969 145.308594 148.578125 C 145.28125 149.160156 145.21875 150.027344 145.277344 150.617188 C 145.429688 151.191406 145.539063 151.84375 145.597656 152.527344 Z M 26.804688 147.441406 C 25.035156 149.164063 22.625 150.878906 21.042969 151.820313 C 20.488281 152.152344 19.945313 152.414063 19.359375 152.625 C 19.835938 153.347656 20.4375 154.105469 20.925781 154.785156 C 21.984375 156.25 23.015625 157.734375 23.972656 159.269531 C 24.597656 160.277344 25.296875 161.464844 25.886719 162.710938 C 25.84375 162.3125 25.824219 161.90625 25.832031 161.5 C 25.855469 159.734375 25.925781 157.980469 26.015625 156.21875 C 26.050781 155.503906 26.113281 154.679688 26.023438 153.96875 C 26.007813 153.832031 25.984375 153.691406 25.953125 153.554688 C 25.605469 151.949219 26.21875 149.3125 26.804688 147.441406 Z M 40.695313 151.460938 C 40.617188 152.03125 40.808594 153.59375 40.851563 154.066406 C 41.050781 156.113281 41.160156 158.089844 41.066406 160.144531 C 41.960938 159.464844 43.714844 156.589844 44.25 155.6875 C 45.128906 154.195313 45.984375 152.621094 46.710938 151.050781 C 47.449219 149.449219 46.082031 147.351563 45.039063 146.109375 C 44.890625 146.277344 44.742188 146.472656 44.667969 146.582031 C 44.074219 147.421875 43.378906 148.25 42.722656 149.042969 C 42.054688 149.851563 41.378906 150.660156 40.695313 151.460938 Z M 97.730469 151.5625 C 97.636719 152.589844 97.660156 153.6875 97.703125 154.6875 C 97.777344 156.484375 97.960938 158.269531 98.164063 160.054688 C 98.167969 160.082031 98.171875 160.117188 98.179688 160.152344 C 99.066406 159.488281 100.835938 156.59375 101.371094 155.6875 C 102.25 154.195313 103.109375 152.621094 103.835938 151.050781 C 104.574219 149.449219 103.203125 147.351563 102.164063 146.109375 C 102.011719 146.277344 101.867188 146.472656 101.789063 146.582031 C 101.148438 147.492188 100.378906 148.390625 99.667969 149.25 C 99.027344 150.027344 98.382813 150.796875 97.730469 151.5625 Z M 97.730469 151.5625 "/>
<path style=" stroke:none;fill-rule:evenodd;fill:rgb(77.34375%,78.125%,78.514099%);fill-opacity:1;" d="M 5.199219 133.738281 C 5.199219 133.738281 8.296875 130.527344 10.585938 133 C 12.875 135.472656 12.171875 140.382813 11.582031 142.265625 C 10.992188 144.148438 11.324219 145.03125 13.097656 143.886719 C 14.867188 142.746094 21.253906 138.757813 23.652344 139.421875 C 26.050781 140.085938 26.492188 141.378906 25.199219 143.667969 C 24.207031 145.429688 20.519531 148.21875 18.355469 149.511719 C 17.777344 149.855469 17.273438 150.085938 16.640625 150.269531 C 15.613281 150.574219 14.769531 151.414063 15.679688 152.929688 C 16.675781 154.589844 23.1875 162.496094 23.480469 166.863281 C 23.777344 171.226563 21.410156 171.523438 20.152344 171.152344 C 18.894531 170.785156 14.453125 165.085938 13.417969 162.71875 C 12.382813 160.351563 10.605469 157.316406 9.792969 157.019531 C 8.980469 156.726563 8.460938 157.390625 8.460938 158.277344 C 8.460938 159.167969 6.980469 165.457031 5.355469 168.195313 C 3.726563 170.933594 2.503906 170.792969 1.730469 170.089844 C 0.953125 169.390625 0.175781 162.199219 1.359375 157.464844 C 2.542969 152.730469 1.726563 153.691406 1.507813 152.953125 C 1.285156 152.210938 0.992188 146.765625 1.914063 145.957031 C 2.835938 145.144531 4.609375 141.859375 4.609375 139.679688 C 4.609375 137.503906 4.347656 136.101563 5.199219 133.738281 Z M 32.65625 138.609375 C 32.65625 138.609375 34.613281 136.507813 34.6875 135.621094 C 34.757813 134.734375 35.902344 132.855469 37.304688 133.480469 C 38.707031 134.109375 40.480469 133.039063 41.699219 132.523438 C 42.914063 132.003906 45.128906 131.894531 48.082031 133.960938 C 51.035156 136.027344 55.648438 140.789063 56.203125 144.996094 C 56.753906 149.203125 57.148438 156.058594 49.378906 163.828125 C 41.609375 171.597656 37.320313 171.746094 34.730469 171.449219 C 32.140625 171.152344 26.367188 166.640625 26.441406 161.089844 C 26.515625 155.542969 26.886719 154.355469 26.515625 152.65625 C 26.144531 150.953125 27.773438 143.332031 32.65625 138.609375 Z M 61.847656 142.523438 C 61.847656 142.523438 63.140625 138.5 65.132813 137.6875 C 67.125 136.875 72.070313 136.324219 72.367188 139.828125 C 72.660156 143.335938 71.589844 145.882813 72.882813 148.945313 C 74.175781 152.007813 75.390625 153.632813 76.019531 149.203125 C 76.648438 144.773438 76.316406 138.609375 77.53125 136.949219 C 78.75 135.289063 81.1875 132.78125 81.738281 131.894531 C 82.292969 131.007813 83.695313 131.230469 84.066406 134.515625 C 84.433594 137.800781 84.15625 144.738281 83.933594 146.957031 C 83.710938 149.179688 84.949219 148.171875 85.222656 146.832031 C 85.5 145.492188 87.792969 140.605469 89.710938 139.015625 C 91.628906 137.429688 91.667969 135.585938 92.074219 134.625 C 92.480469 133.664063 93.550781 132.964844 94.769531 133.480469 C 95.984375 133.996094 98.382813 132.667969 100.191406 132.449219 C 102 132.226563 109.160156 134.402344 111.375 140.417969 C 113.589844 146.433594 114.863281 152.0625 109.019531 160.5 C 103.171875 168.933594 97.179688 171.300781 94.292969 171.820313 C 91.40625 172.335938 88.003906 169.96875 86.820313 168.269531 C 85.636719 166.566406 84.378906 163.753906 84.304688 161.089844 C 84.230469 158.425781 84.472656 156.511719 84.25 155.882813 C 84.027344 155.253906 83.402344 156.03125 83.105469 157.914063 C 82.808594 159.792969 79.488281 166.402344 78.085938 167.765625 C 76.683594 169.132813 74.433594 169.316406 73.140625 167.582031 C 71.847656 165.847656 69.523438 159.90625 68.859375 158.945313 C 68.195313 157.984375 66.867188 157.765625 66.683594 158.722656 C 66.5 159.683594 64.617188 163.855469 64.429688 167.027344 C 64.246094 170.203125 63.25 170.460938 61.886719 170.609375 C 60.519531 170.753906 58.046875 170.089844 58.082031 167.730469 C 58.121094 165.367188 59.515625 160.648438 60.035156 156.207031 C 60.550781 151.769531 60.113281 149.71875 60.777344 148.28125 C 61.441406 146.839844 61.40625 145.660156 61.847656 142.523438 Z M 118.972656 135.042969 C 118.972656 135.042969 120.53125 132.582031 121.597656 132.4375 C 122.664063 132.289063 125.378906 132.214844 125.746094 133.683594 C 126.113281 135.152344 126.136719 135.730469 125.25 141.15625 C 124.367188 146.582031 123.886719 148.28125 125.363281 149.09375 C 126.839844 149.902344 134.515625 151.492188 134.589844 149.496094 C 134.664063 147.503906 135.585938 139.164063 135.105469 137.984375 C 134.625 136.800781 133.960938 135.511719 134.664063 134.367188 C 135.363281 133.222656 138.539063 130.824219 140.566406 132.707031 C 142.597656 134.589844 142.191406 136.617188 142.191406 137.652344 C 142.191406 138.683594 141.277344 149.621094 141.574219 150.65625 C 141.871094 151.695313 142.242188 155.023438 141.277344 157.390625 C 140.316406 159.757813 138.90625 164.703125 138.28125 165.589844 C 137.652344 166.472656 137.355469 169.207031 135.695313 169.539063 C 134.035156 169.871094 132.816406 169.574219 132.890625 168.355469 C 132.964844 167.140625 133.1875 161.125 132.300781 159.609375 C 131.414063 158.097656 129.828125 157.285156 128.425781 156.953125 C 127.023438 156.621094 122.335938 154.777344 122.484375 156.695313 C 122.632813 158.613281 121.265625 164.59375 120.011719 167.140625 C 118.757813 169.683594 117.207031 169.574219 116.210938 169.539063 C 115.214844 169.5 114.585938 166.878906 114.808594 164.113281 C 115.027344 161.34375 116.46875 154.996094 116.691406 152.5625 C 116.910156 150.125 117.6875 143.1875 118.972656 135.042969 Z M 144.847656 156.4375 C 144.847656 156.4375 146.101563 154.554688 146.175781 152.820313 C 146.25 151.085938 146.324219 148.796875 147.875 147.910156 C 149.425781 147.023438 151.011719 141.488281 152.230469 138.316406 C 153.449219 135.140625 157.914063 131.710938 159.277344 132.484375 C 160.644531 133.257813 161.675781 132.964844 162.933594 137.984375 C 164.1875 143.003906 166.214844 147.328125 166.289063 150.214844 C 166.363281 153.097656 164.925781 161.417969 163.746094 164.519531 C 162.5625 167.617188 161.675781 169.832031 160.203125 169.796875 C 158.726563 169.757813 156.546875 167.285156 156.953125 164.886719 C 157.359375 162.488281 157.875 159.792969 157.800781 159.128906 C 157.730469 158.464844 157.46875 158.246094 155.035156 158.984375 C 152.597656 159.722656 151.566406 159.535156 151.085938 161.085938 C 150.605469 162.636719 149.90625 166.585938 149.203125 168.429688 C 148.503906 170.277344 147.765625 170.015625 146.363281 169.980469 C 144.960938 169.945313 142.523438 169.945313 142.558594 168.355469 C 142.597656 166.769531 142.488281 162.671875 143.152344 160.828125 C 143.816406 158.984375 144.296875 158.207031 144.847656 156.4375 Z M 154.371094 151.527344 C 154.371094 151.527344 155.839844 148.195313 156.003906 147.640625 C 156.164063 147.085938 156.917969 147.117188 157.144531 148.03125 C 157.375 148.945313 158.03125 150.832031 158.0625 151.058594 C 158.09375 151.285156 158.273438 152 157.445313 152 C 156.617188 152 154.683594 152.097656 154.40625 152.035156 C 154.128906 151.96875 154.242188 151.742188 154.371094 151.527344 Z M 37.265625 149.84375 C 37.265625 149.84375 40.425781 146.144531 41.3125 144.886719 C 42.203125 143.628906 43.542969 142.449219 44.910156 144 C 46.273438 145.550781 48.453125 148.648438 47.121094 151.527344 C 45.792969 154.40625 42.4375 160.421875 40.589844 161.601563 C 38.746094 162.785156 37.304688 161.828125 37.304688 159.867188 C 37.597656 154.382813 36.367188 151.15625 37.265625 149.84375 Z M 94.070313 150.214844 C 94.070313 150.214844 97.550781 146.144531 98.4375 144.886719 C 99.324219 143.628906 100.664063 142.449219 102.03125 144 C 103.394531 145.550781 105.574219 148.648438 104.246094 151.527344 C 102.917969 154.40625 99.558594 160.421875 97.714844 161.601563 C 95.867188 162.785156 94.648438 161.789063 94.429688 159.867188 C 94.207031 157.949219 93.652344 153.113281 94.070313 150.214844 Z M 94.070313 150.214844 "/>
</g>
</svg>
